<svg id="visual" viewBox="0 0 960 540" width="960" height="540" xmlns="http://www.w3.org/2000/svg" xmlns:xlink="http://www.w3.org/1999/xlink" version="1.1"><rect x="0" y="0" width="960" height="540" fill="#020617"></rect><path d="M0 335L107 335L107 314L213 314L213 311L320 311L320 345L427 345L427 395L533 395L533 331L640 331L640 403L747 403L747 306L853 306L853 328L960 328L960 379L960 541L960 541L853 541L853 541L747 541L747 541L640 541L640 541L533 541L533 541L427 541L427 541L320 541L320 541L213 541L213 541L107 541L107 541L0 541Z" fill="#560090"></path><path d="M0 405L107 405L107 452L213 452L213 400L320 400L320 452L427 452L427 380L533 380L533 403L640 403L640 441L747 441L747 402L853 402L853 408L960 408L960 402L960 541L960 541L853 541L853 541L747 541L747 541L640 541L640 541L533 541L533 541L427 541L427 541L320 541L320 541L213 541L213 541L107 541L107 541L0 541Z" fill="#7700c6"></path><path d="M0 470L107 470L107 478L213 478L213 482L320 482L320 470L427 470L427 509L533 509L533 479L640 479L640 444L747 444L747 508L853 508L853 454L960 454L960 479L960 541L960 541L853 541L853 541L747 541L747 541L640 541L640 541L533 541L533 541L427 541L427 541L320 541L320 541L213 541L213 541L107 541L107 541L0 541Z" fill="#9900ff"></path></svg>